# xmcd
#
# Track frame offsets: 
#        150
#        15679
#        29950
#        46224
#        61437
#        73783
#        87093
#        103073
#        122100
#        141045
#        152117
#        165230
#        176259
#        191443
#        207142
#
# Disc length: 3014 seconds
#
# Revision: 0
# Processed by: cddbd v1.5.2PL0 Copyright (c) Steve Scherf et al.
# Submitted via: ExactAudioCopy v0.99pb5
#
DISCID=ca0bc40f
DTITLE=Espinoza Paz - El Canta Antor del Pueblo
DYEAR=2008
DGENRE=Latin
TTITLE0=Amigos con Derecho
TTITLE1=Asi Soy Feliz
TTITLE2=Madre Mia
TTITLE3=El Celular
TTITLE4=La Carcacha
TTITLE5=No Soy un Bobo
TTITLE6=La Que Sure es Mi Mama
TTITLE7=Ojala
TTITLE8=El Proximo Viernes
TTITLE9=la Sorpresa
TTITLE10=Gotitas de Lluvia
TTITLE11=Por Cuanto Me Amarias
TTITLE12=El Celular - Tolo Loche
TTITLE13=Amigos con Derecho - Tolo Loche
TTITLE14=Ojala - Tolo Loche
EXTD=
EXTT0=
EXTT1=
EXTT2=
EXTT3=
EXTT4=
EXTT5=
EXTT6=
EXTT7=
EXTT8=
EXTT9=
EXTT10=
EXTT11=
EXTT12=
EXTT13=
EXTT14=
PLAYORDER=
